<?xml version="1.0" encoding="UTF-8"?>
<svg xmlns="http://www.w3.org/2000/svg" xmlns:xlink="http://www.w3.org/1999/xlink" viewBox="0 0 60 60" width="60px" height="60px">
<g id="surface9907053">
<path style=" stroke:none;fill-rule:nonzero;fill:rgb(20.392157%,59.607846%,85.882354%);fill-opacity:1;" d="M 48 8 L 12 8 C 9.789062 8 8 9.789062 8 12 L 8 48 C 8 50.210938 9.789062 52 12 52 L 48 52 C 50.210938 52 52 50.210938 52 48 L 52 12 C 52 9.789062 50.210938 8 48 8 Z M 30 40.761719 C 30 44.3125 27.820312 46.304688 24.199219 46.304688 C 20.625 46.304688 18.347656 44.214844 18.347656 40.835938 L 22.21875 40.835938 C 22.230469 42.089844 22.976562 42.882812 24.132812 42.882812 C 25.320312 42.882812 25.960938 42.132812 25.960938 40.726562 L 25.960938 29.996094 L 30 29.996094 Z M 40.960938 46.304688 C 36.945312 46.304688 34.414062 44.414062 34.347656 41.355469 L 38.199219 41.355469 C 38.296875 42.511719 39.453125 43.246094 41.125 43.246094 C 42.632812 43.246094 43.671875 42.519531 43.671875 41.472656 C 43.671875 40.59375 42.976562 40.121094 41.160156 39.757812 L 39.070312 39.339844 C 36.164062 38.789062 34.667969 37.207031 34.667969 34.707031 C 34.667969 31.605469 37.15625 29.566406 40.984375 29.566406 C 44.703125 29.566406 47.277344 31.582031 47.34375 34.519531 L 43.613281 34.519531 C 43.527344 33.398438 42.457031 32.617188 41.035156 32.617188 C 39.617188 32.617188 38.683594 33.289062 38.683594 34.34375 C 38.683594 35.214844 39.386719 35.71875 41.058594 36.050781 L 43.105469 36.445312 C 46.242188 37.050781 47.648438 38.46875 47.648438 40.988281 C 47.652344 44.304688 45.121094 46.304688 40.960938 46.304688 Z M 40.960938 46.304688 "/>
</g>
</svg>
